<svg width="75" height="40" viewBox="0 0 75 40" fill="none" xmlns="http://www.w3.org/2000/svg">
    <path d="M41.9375 24.2344H36.5V14.2266H35.0938V25.5H41.9375V24.2344ZM46.4062 25.6406C48.6484 25.6406 50.1641 24.0234 50.1641 21.4375C50.1641 18.8438 48.6484 17.2344 46.4062 17.2344C44.1562 17.2344 42.6406 18.8438 42.6406 21.4375C42.6406 24.0234 44.1562 25.6406 46.4062 25.6406ZM46.4062 24.4453C44.9688 24.4453 44.0234 23.3516 44.0234 21.4375C44.0234 19.5234 44.9688 18.4297 46.4062 18.4297C47.8438 18.4297 48.7812 19.5234 48.7812 21.4375C48.7812 23.3516 47.8438 24.4453 46.4062 24.4453ZM54.8906 28.5625C57.1328 28.5625 58.5625 27.2734 58.5625 25.3359V17.375H57.2656V18.7422H57.2422C56.7031 17.7969 55.75 17.2344 54.6016 17.2344C52.5 17.2344 51.1406 18.8594 51.1406 21.4062C51.1406 23.9297 52.5 25.5625 54.5703 25.5625C55.7109 25.5625 56.6719 24.9844 57.1719 24.1016H57.2031V25.3828C57.2031 26.5938 56.3516 27.4062 54.9453 27.4062C53.9297 27.4062 53.125 26.9141 52.8594 26.1719H51.4609C51.6875 27.5547 53.1016 28.5625 54.8906 28.5625ZM54.8438 24.3672C53.4453 24.3672 52.5312 23.2266 52.5312 21.4062C52.5312 19.5859 53.4453 18.4297 54.8438 18.4297C56.2578 18.4297 57.2031 19.6172 57.2031 21.4062C57.2031 23.1953 56.2578 24.3672 54.8438 24.3672ZM65.2344 25.5V14.2266H63.8281V25.5H65.2344ZM67.2109 25.5H68.5703V20.7188C68.5703 19.3438 69.4062 18.4375 70.6875 18.4375C71.9375 18.4375 72.5547 19.1562 72.5547 20.4688V25.5H73.9141V20.2266C73.9141 18.3828 72.8828 17.2344 71.1016 17.2344C69.8438 17.2344 68.9766 17.7969 68.5234 18.6719H68.4922V17.375H67.2109V25.5Z"
          fill="#666666"/>
    <path d="M19.0078 10.4922H15C14.7031 10.4922 14.4609 10.5859 14.2734 10.7734C14.0859 10.9609 13.9922 11.2031 13.9922 11.5C13.9922 11.7969 14.0859 12.0391 14.2734 12.2266C14.4609 12.4141 14.7031 12.5078 15 12.5078H19.0078C19.3047 12.5078 19.5391 12.6016 19.7109 12.7891C19.8984 12.9609 19.9922 13.1953 19.9922 13.4922V27.5078C19.9922 27.8047 19.8984 28.0469 19.7109 28.2344C19.5391 28.4062 19.3047 28.4922 19.0078 28.4922H15C14.7031 28.4922 14.4609 28.5859 14.2734 28.7734C14.0859 28.9609 13.9922 29.2031 13.9922 29.5C13.9922 29.7969 14.0859 30.0391 14.2734 30.2266C14.4609 30.4141 14.7031 30.5078 15 30.5078H19.0078C19.8516 30.5078 20.5625 30.2188 21.1406 29.6406C21.7188 29.0625 22.0078 28.3516 22.0078 27.5078V13.4922C22.0078 12.6484 21.7188 11.9375 21.1406 11.3594C20.5625 10.7812 19.8516 10.4922 19.0078 10.4922ZM15.8906 20.8984C15.9531 20.8047 15.9844 20.6875 15.9844 20.5469C15.9844 20.4062 15.9531 20.2578 15.8906 20.1016C15.8438 20.0547 15.8125 20.0078 15.7969 19.9609C15.7812 19.8984 15.75 19.8438 15.7031 19.7969L10.7109 14.8047C10.5078 14.6016 10.2734 14.5 10.0078 14.5C9.74219 14.5 9.50781 14.6016 9.30469 14.8047C9.10156 15.0078 9 15.2422 9 15.5078C9 15.7734 9.10156 16.0078 9.30469 16.2109L12.6094 19.4922H3C2.70312 19.4922 2.46094 19.5859 2.27344 19.7734C2.08594 19.9609 1.99219 20.2031 1.99219 20.5C1.99219 20.7969 2.08594 21.0391 2.27344 21.2266C2.46094 21.4141 2.70312 21.5078 3 21.5078H12.6094L9.30469 24.7891C9.10156 24.9922 9 25.2266 9 25.4922C9 25.7578 9.10156 25.9922 9.30469 26.1953C9.39844 26.3047 9.5 26.3828 9.60938 26.4297C9.71875 26.4766 9.85156 26.5 10.0078 26.5C10.1484 26.5 10.2734 26.4766 10.3828 26.4297C10.4922 26.3828 10.6016 26.3047 10.7109 26.1953L15.7031 21.2031C15.75 21.1562 15.7891 21.1094 15.8203 21.0625C15.8672 21 15.8906 20.9453 15.8906 20.8984Z"
          fill="#808080"/>
</svg>
