<svg width="18" height="19" viewBox="0 0 18 19" fill="none" xmlns="http://www.w3.org/2000/svg">
<path d="M1.5 14.25H4.83984C4.95703 14.25 5.0612 14.2305 5.15234 14.1914C5.24349 14.1523 5.33464 14.0872 5.42578 13.9961L14.5859 4.83594C14.7552 4.66667 14.8398 4.47135 14.8398 4.25C14.8398 4.02865 14.7552 3.83333 14.5859 3.66406L11.2461 0.324219C11.0768 0.167969 10.8815 0.0898438 10.6602 0.0898438C10.4388 0.0898438 10.2435 0.167969 10.0742 0.324219L0.914062 9.50391C0.835938 9.58203 0.770833 9.66667 0.71875 9.75781C0.679688 9.84896 0.660156 9.95964 0.660156 10.0898V13.4102C0.660156 13.6706 0.738281 13.8789 0.894531 14.0352C1.05078 14.1784 1.2526 14.25 1.5 14.25ZM2.33984 10.4219L10.6602 2.08203L12.8281 4.25L4.50781 12.5898H2.33984V10.4219ZM16.5 16.75H1.5C1.2526 16.75 1.05078 16.8281 0.894531 16.9844C0.738281 17.1276 0.660156 17.3294 0.660156 17.5898C0.660156 17.8372 0.738281 18.0326 0.894531 18.1758C1.05078 18.332 1.2526 18.4102 1.5 18.4102H16.5C16.7474 18.4102 16.9492 18.332 17.1055 18.1758C17.2617 18.0326 17.3398 17.8372 17.3398 17.5898C17.3398 17.3294 17.2617 17.1276 17.1055 16.9844C16.9492 16.8281 16.7474 16.75 16.5 16.75Z" fill="#808080"/>
</svg>
